<svg width="47" height="47" viewBox="0 0 47 47" fill="none" xmlns="http://www.w3.org/2000/svg">
<mask id="mask0_259_2136" style="mask-type:luminance" maskUnits="userSpaceOnUse" x="0" y="0" width="47" height="47">
<path d="M47 0H0V47H47V0Z" fill="white"/>
</mask>
<g mask="url(#mask0_259_2136)">
<path d="M23.2099 4.40598C12.9856 4.562 4.62838 12.8677 4.40623 23.0976C4.32842 26.5384 5.18634 29.9359 6.88841 32.9273C6.9553 33.0442 7.053 33.1404 7.17092 33.2056C7.28884 33.2707 7.42237 33.3021 7.55699 33.2965C7.69152 33.2908 7.82195 33.2481 7.93391 33.1733C8.04596 33.0985 8.13517 32.9943 8.19199 32.8721C9.57085 29.9436 10.2837 26.7458 10.2794 23.5089C10.2762 21.5262 10.7204 19.5683 11.579 17.7812C12.4376 15.9941 13.6884 14.4238 15.2383 13.1873C15.3903 13.0683 15.5642 12.9806 15.7502 12.929C15.9361 12.8773 16.1304 12.8628 16.3219 12.8863C16.5134 12.9097 16.6985 12.9706 16.8664 13.0656C17.0345 13.1606 17.1821 13.2876 17.3009 13.4396C17.4199 13.5917 17.5076 13.7656 17.5592 13.9515C17.6109 14.1375 17.6254 14.3318 17.6019 14.5233C17.5785 14.7148 17.5175 14.8999 17.4226 15.0678C17.3276 15.2359 17.2005 15.3835 17.0486 15.5023C15.8504 16.4649 14.884 17.6846 14.2212 19.0712C13.5582 20.4577 13.2156 21.9757 13.2187 23.5126C13.2236 27.9219 12.0545 32.2531 9.83145 36.0612C9.74903 36.2011 9.71538 36.3644 9.73561 36.5255C9.75583 36.6866 9.82893 36.8365 9.94341 36.9516C10.3106 37.3188 10.6943 37.686 11.0909 38.0201C11.1722 38.0884 11.2673 38.1382 11.3697 38.1662C11.4721 38.1942 11.5793 38.1996 11.684 38.1822C11.7887 38.1647 11.8884 38.1248 11.9762 38.0651C12.064 38.0054 12.1377 37.9275 12.1924 37.8365C13.8178 35.1383 14.9719 32.1831 15.6055 29.0974C15.6831 28.7157 15.9092 28.3804 16.2341 28.1654C16.559 27.9505 16.9559 27.8732 17.3377 27.9509C17.7194 28.0286 18.0547 28.2547 18.2697 28.5796C18.4847 28.9044 18.5619 29.3014 18.4842 29.6832C17.774 33.1648 16.4652 36.4968 14.6159 39.5311C14.5638 39.6174 14.5299 39.7135 14.5165 39.8134C14.5031 39.9132 14.5104 40.0149 14.5379 40.1118C14.5655 40.2087 14.6127 40.299 14.6766 40.3769C14.7406 40.4549 14.8199 40.5188 14.9096 40.5648C15.3631 40.7942 15.8276 41.0072 16.2995 41.2018C16.4624 41.2716 16.645 41.2802 16.8137 41.2258C16.9825 41.1715 17.1259 41.058 17.2174 40.9062C20.3716 35.6671 22.036 29.6665 22.0312 23.5511C22.0274 23.1741 22.166 22.8095 22.4192 22.5301C22.6724 22.2507 23.0216 22.0771 23.3972 22.0438C23.5985 22.0296 23.8006 22.0572 23.9909 22.1246C24.1811 22.1921 24.3554 22.298 24.5028 22.4359C24.6503 22.5737 24.7678 22.7404 24.848 22.9257C24.9281 23.1109 24.9692 23.3107 24.9687 23.5126C24.976 29.7564 23.3825 35.8979 20.3403 41.3505C20.2818 41.4549 20.2497 41.5721 20.2467 41.6918C20.2438 41.8115 20.2702 41.9301 20.3236 42.0372C20.377 42.1444 20.4558 42.2369 20.5531 42.3066C20.6504 42.3764 20.7633 42.4213 20.882 42.4374C21.4389 42.5145 22.0025 42.5671 22.5728 42.5952C22.71 42.6004 22.8458 42.567 22.9648 42.4988C23.0839 42.4307 23.1816 42.3305 23.2467 42.2098C26.3 36.4983 27.9003 30.123 27.9062 23.6466C27.9155 21.2139 26.0152 19.1504 23.5845 19.1045C22.9997 19.0932 22.4186 19.1986 21.8749 19.4143C21.3312 19.63 20.8359 19.9518 20.418 20.3609C20 20.77 19.6676 21.2582 19.4403 21.7972C19.2129 22.3361 19.0951 22.9148 19.0937 23.4997C19.091 23.8665 18.9529 24.2193 18.7059 24.4904C18.4588 24.7615 18.1203 24.9318 17.7553 24.9685C17.5518 24.9866 17.3467 24.962 17.1532 24.8964C16.9597 24.8308 16.782 24.7254 16.6314 24.5872C16.4809 24.449 16.3609 24.2809 16.2791 24.0936C16.1973 23.9063 16.1555 23.704 16.1562 23.4997C16.1562 22.5288 16.3487 21.5674 16.7226 20.6714C17.0964 19.7754 17.6443 18.9624 18.3343 18.2795C19.0245 17.5964 19.8432 17.0571 20.7431 16.6927C21.643 16.3282 22.6062 16.1457 23.5771 16.156C27.6162 16.1982 30.8621 19.6754 30.8419 23.7127C30.824 29.701 29.5401 35.6179 27.0746 41.0751C27.0185 41.2009 26.999 41.3398 27.0181 41.4761C27.0371 41.6123 27.0941 41.7405 27.1826 41.8459C27.2711 41.9514 27.3873 42.0299 27.5181 42.0725C27.6491 42.115 27.7892 42.12 27.9228 42.0867C28.5597 41.9357 29.1885 41.7518 29.8065 41.536C29.9028 41.5017 29.9908 41.4479 30.0652 41.3777C30.1395 41.3075 30.1983 41.2226 30.2379 41.1283C31.0928 39.1022 31.7973 37.0158 32.3455 34.8862C32.3938 34.6993 32.4783 34.5238 32.5944 34.3697C32.7105 34.2155 32.8557 34.0856 33.0219 33.9876C33.1882 33.8896 33.3721 33.8253 33.5631 33.7983C33.7542 33.7713 33.9487 33.7823 34.1356 33.8305C34.3224 33.8788 34.498 33.9633 34.6522 34.0793C34.8063 34.1954 34.9361 34.3407 35.0341 34.5069C35.1321 34.6731 35.1965 34.857 35.2235 35.0481C35.2504 35.2392 35.2395 35.4337 35.1912 35.6205C35.0542 36.1554 34.9073 36.6879 34.7506 37.2179C34.7045 37.3704 34.7093 37.5338 34.7643 37.6835C34.8193 37.8331 34.9214 37.9608 35.0553 38.0472C35.1893 38.1337 35.3477 38.1742 35.5066 38.1627C35.6657 38.1512 35.8166 38.0883 35.9367 37.9834C38.914 35.4267 41.0312 32.0148 42.0002 28.2119C42.9691 24.409 42.7428 20.3999 41.3518 16.7303C39.961 13.0606 37.4732 9.90867 34.2269 7.70345C30.9807 5.49823 27.1338 4.34681 23.2099 4.40598ZM36.3515 29.573C36.3069 29.9274 36.1347 30.2534 35.867 30.4899C35.5994 30.7265 35.2547 30.8573 34.8975 30.8582C34.8361 30.8581 34.7749 30.8545 34.7139 30.8471C34.5225 30.8233 34.3376 30.762 34.1698 30.6666C34.0021 30.5714 33.8547 30.444 33.7362 30.2917C33.6178 30.1395 33.5304 29.9653 33.4792 29.7793C33.4281 29.5934 33.414 29.3991 33.438 29.2076C33.6721 27.3195 33.7898 25.4188 33.7905 23.5162C33.7865 20.7907 32.7021 18.1778 30.7748 16.2506C28.8476 14.3233 26.2347 13.2389 23.5092 13.2349C23.0796 13.2348 22.6504 13.2611 22.224 13.3139C21.8372 13.3626 21.4468 13.2557 21.1388 13.0165C20.8309 12.7774 20.6305 12.4257 20.5818 12.0389C20.5331 11.652 20.64 11.2616 20.8792 10.9537C21.1183 10.6456 21.47 10.4453 21.8568 10.3966C23.7179 10.1651 25.6068 10.3317 27.3986 10.8853C29.1904 11.4389 30.8441 12.367 32.2501 13.608C33.6562 14.849 34.7825 16.3745 35.5545 18.0837C36.3264 19.7927 36.7264 21.6463 36.728 23.5217C36.7275 25.5447 36.6018 27.5656 36.3515 29.573Z" fill="#BDBDBD"/>
</g>
</svg>
